<?xml version="1.0" encoding="UTF-8"?>
<svg width="36px" height="36px" viewBox="0 0 36 36" version="1.1" xmlns="http://www.w3.org/2000/svg" xmlns:xlink="http://www.w3.org/1999/xlink">
    <title>ICON/Submit</title>
    <g id="ICON/Submit" stroke="none" stroke-width="1" fill="none" fill-rule="evenodd">
        <path d="M25.4135216,30.7839285 C20.913293,30.7839285 17.2652004,27.162539 17.2652004,22.695251 C17.2652004,18.227963 20.913293,14.6065735 25.4135216,14.6065735 C29.9137502,14.6065735 33.5618428,18.227963 33.5618428,22.695251 C33.5618428,27.162539 29.9137502,30.7839285 25.4135216,30.7839285 L25.4135216,30.7839285 Z M24.1033169,33.5796896 L2.43815716,33.5796896 L2.43815716,2.42031044 L24.1033169,2.42031044 L24.1033169,12.2697638 C22.7437395,12.4370677 21.4624879,12.8597144 20.3119825,13.4905078 L7.31599533,13.4905078 C6.64275918,13.4905078 6.09691675,14.0323548 6.09691675,14.7006631 C6.09691675,15.3689713 6.64275918,15.9108183 7.31599533,15.9108183 L17.3380403,15.9108183 C16.3045665,17.1209735 15.5414233,18.5643861 15.1427846,20.1502946 L7.31599533,20.1502946 C6.64275918,20.1502946 6.09691675,20.6921416 6.09691675,21.3604498 C6.09691675,22.028758 6.64275918,22.570605 7.31599533,22.570605 L14.8300909,22.570605 C14.8297862,22.6123553 14.8270432,22.6535006 14.8270432,22.695251 C14.8270432,24.1550007 15.1290699,25.5454691 15.6730838,26.8100813 L7.31599533,26.8100813 C6.64275918,26.8100813 6.09691675,27.3519283 6.09691675,28.0202365 C6.09691675,28.6885447 6.64275918,29.2303917 7.31599533,29.2303917 L17.1320161,29.2303917 C18.8161731,31.3288009 21.2896835,32.7743313 24.1033169,33.1207382 L24.1033169,33.5796896 Z M26.5414741,12.2467708 L26.5414741,1.21015522 C26.5414741,0.541846999 25.9956316,0 25.3223955,0 L1.21907858,0 C0.545842434,0 0,0.541846999 0,1.21015522 L0,34.7898448 C0,35.458153 0.545842434,36 1.21907858,36 L25.3223955,36 C25.9956316,36 26.5414741,35.458153 26.5414741,34.7898448 L26.5414741,33.1440337 C31.8505613,32.5828242 36,28.1116032 36,22.695251 C36,17.2788988 31.8505613,12.8076778 26.5414741,12.2467708 L26.5414741,12.2467708 Z M28.5669731,19.2820082 L24.2764261,23.541452 L22.2600701,21.5395527 C21.7843247,21.0669871 21.0117336,21.0669871 20.5359882,21.5395527 C20.059938,22.0121184 20.059938,22.7784492 20.5359882,23.2510148 L23.4145375,26.1084938 C23.6431147,26.3353979 23.9530655,26.4627667 24.2764261,26.4627667 C24.5994819,26.4627667 24.9097374,26.3353979 25.1383146,26.1084938 L30.2907502,20.9934702 C30.7671052,20.5209046 30.7671052,19.7545738 30.2907502,19.2820082 C29.8147001,18.8097451 29.0424138,18.8097451 28.5669731,19.2820082 L28.5669731,19.2820082 Z M7.31599533,9.25103157 L19.4046833,9.25103157 C20.0779194,9.25103157 20.6237619,8.70918457 20.6237619,8.04087635 C20.6237619,7.37256813 20.0779194,6.83072113 19.4046833,6.83072113 L7.31599533,6.83072113 C6.64275918,6.83072113 6.09691675,7.37256813 6.09691675,8.04087635 C6.09691675,8.70918457 6.64275918,9.25103157 7.31599533,9.25103157 L7.31599533,9.25103157 Z" id="Fill-1" fill="#F2673C"/>
    </g>
</svg>