<?xml version="1.0" encoding="UTF-8"?>
<svg width="36px" height="36px" viewBox="0 0 36 36" version="1.1" xmlns="http://www.w3.org/2000/svg" xmlns:xlink="http://www.w3.org/1999/xlink">
    <title>ICON/Publising</title>
    <g id="ICON/Publising" stroke="none" stroke-width="1" fill="none" fill-rule="evenodd">
        <path d="M33.7200399,30.8148889 C33.7200399,31.424633 33.2269985,31.9186572 32.6191042,31.9186572 L20.970503,31.9186572 C20.9431435,31.8335102 20.912934,31.7495061 20.8784496,31.6675021 L31.143115,26.5655379 C31.9194414,26.1798047 32.4104878,25.3863373 32.4104878,24.5177233 L32.4104878,10.6401865 L32.6191042,10.6401865 C33.2269985,10.6401865 33.7200399,11.1342107 33.7200399,11.7439548 L33.7200399,30.8148889 Z M19.1693345,29.9657044 L19.1693345,10.6401865 L19.1693345,8.7340931 L19.9334062,8.35436021 L30.1305277,3.28582624 L30.1305277,24.5177233 L19.1693345,29.9657044 Z M16.8306655,10.6401865 L16.8306655,29.9657044 L5.86947228,24.5177233 L5.86947228,3.28582624 L16.0665938,8.35436021 L16.8306655,8.7340931 L16.8306655,10.6401865 Z M15.029497,31.9186572 L3.38089583,31.9186572 C2.77271648,31.9186572 2.2799601,31.424633 2.2799601,30.8148889 L2.2799601,11.7439548 C2.2799601,11.1342107 2.77271648,10.6401865 3.38089583,10.6401865 L3.58951218,10.6401865 L3.58951218,24.5177233 C3.58951218,25.3863373 4.08055859,26.1798047 4.856885,26.5655379 L15.1212654,31.6675021 C15.087066,31.7495061 15.0568565,31.8335102 15.029497,31.9186572 L15.029497,31.9186572 Z M32.6191042,8.35436021 L32.4104878,8.35436021 L32.4104878,3.28582624 C32.4104878,2.49493036 32.00266,1.76032295 31.3323517,1.34344539 C30.9655631,1.11543423 30.5486154,1 30.1302427,1 C29.7842588,1 29.4377048,1.07886101 29.1176554,1.23801166 L18.1564623,6.68599278 C18.1017432,6.7134227 18.0518691,6.74713864 18,6.77828302 C17.9481309,6.74713864 17.8982568,6.7134227 17.8435377,6.68599278 L6.88234456,1.23801166 C6.56229516,1.07886101 6.21545623,1 5.86975728,1 C5.4513846,1 5.0344369,1.1151485 4.66764832,1.34344539 C3.99734005,1.76032295 3.58951218,2.49493036 3.58951218,3.28582624 L3.58951218,8.35436021 L3.38089583,8.35436021 C1.51645846,8.35436021 0,9.87472039 0,11.7439548 L0,30.8148889 C0,32.6838376 1.51645846,34.2044835 3.38089583,34.2044835 L15.1813993,34.2044835 C15.6818506,35.2636782 16.7554268,36 18,36 C19.2445732,36 20.3181494,35.2636782 20.8183157,34.2044835 L32.6191042,34.2044835 C34.4832565,34.2044835 36,32.6838376 36,30.8148889 L36,11.7439548 C36,9.87472039 34.4832565,8.35436021 32.6191042,8.35436021 L32.6191042,8.35436021 Z" id="Fill-4" fill="#F2673C"/>
    </g>
</svg>